<?xml version="1.0" encoding="UTF-8"?><svg xmlns="http://www.w3.org/2000/svg" viewBox="0 0 16 16" rendering="crispEdges"><rect width="100%" height="100%" fill="#1b1917"/><rect x="1" y="3" width="1" height="1" fill="#bf6060"/><rect x="1" y="7" width="1" height="1" fill="#bf6060"/><rect x="1" y="11" width="1" height="1" fill="#60bfbf"/><rect x="1" y="14" width="1" height="1" fill="#60bfbf"/><rect x="2" y="4" width="1" height="1" fill="#bf6060"/><rect x="2" y="5" width="1" height="1" fill="#bf6060"/><rect x="2" y="6" width="1" height="1" fill="#bf6060"/><rect x="2" y="7" width="1" height="1" fill="#bf6060"/><rect x="2" y="10" width="1" height="1" fill="#60bfbf"/><rect x="2" y="12" width="1" height="1" fill="#60bfbf"/><rect x="2" y="14" width="1" height="1" fill="#60bfbf"/><rect x="3" y="3" width="1" height="1" fill="#bf6060"/><rect x="3" y="7" width="1" height="1" fill="#bf6060"/><rect x="3" y="10" width="1" height="1" fill="#60bfbf"/><rect x="3" y="12" width="1" height="1" fill="#60bfbf"/><rect x="3" y="14" width="1" height="1" fill="#60bfbf"/><rect x="4" y="3" width="1" height="1" fill="#bf6060"/><rect x="4" y="4" width="1" height="1" fill="#bf6060"/><rect x="4" y="10" width="1" height="1" fill="#60bfbf"/><rect x="4" y="13" width="1" height="1" fill="#60bfbf"/><rect x="6" y="3" width="1" height="1" fill="#bfbf60"/><rect x="6" y="4" width="1" height="1" fill="#bfbf60"/><rect x="6" y="5" width="1" height="1" fill="#bfbf60"/><rect x="6" y="6" width="1" height="1" fill="#bfbf60"/><rect x="6" y="7" width="1" height="1" fill="#bfbf60"/><rect x="6" y="10" width="1" height="1" fill="#6060bf"/><rect x="6" y="14" width="1" height="1" fill="#6060bf"/><rect x="7" y="3" width="1" height="1" fill="#bfbf60"/><rect x="7" y="11" width="1" height="1" fill="#6060bf"/><rect x="7" y="12" width="1" height="1" fill="#6060bf"/><rect x="7" y="13" width="1" height="1" fill="#6060bf"/><rect x="7" y="14" width="1" height="1" fill="#6060bf"/><rect x="8" y="3" width="1" height="1" fill="#bfbf60"/><rect x="8" y="10" width="1" height="1" fill="#6060bf"/><rect x="8" y="14" width="1" height="1" fill="#6060bf"/><rect x="9" y="4" width="1" height="1" fill="#bfbf60"/><rect x="9" y="5" width="1" height="1" fill="#bfbf60"/><rect x="9" y="6" width="1" height="1" fill="#bfbf60"/><rect x="9" y="7" width="1" height="1" fill="#bfbf60"/><rect x="9" y="10" width="1" height="1" fill="#6060bf"/><rect x="9" y="11" width="1" height="1" fill="#6060bf"/><rect x="11" y="4" width="1" height="1" fill="#60bf60"/><rect x="11" y="5" width="1" height="1" fill="#60bf60"/><rect x="11" y="6" width="1" height="1" fill="#60bf60"/><rect x="11" y="11" width="1" height="1" fill="#bf60bf"/><rect x="11" y="12" width="1" height="1" fill="#bf60bf"/><rect x="11" y="13" width="1" height="1" fill="#bf60bf"/><rect x="12" y="3" width="1" height="1" fill="#60bf60"/><rect x="12" y="7" width="1" height="1" fill="#60bf60"/><rect x="12" y="10" width="1" height="1" fill="#bf60bf"/><rect x="12" y="14" width="1" height="1" fill="#bf60bf"/><rect x="13" y="3" width="1" height="1" fill="#60bf60"/><rect x="13" y="7" width="1" height="1" fill="#60bf60"/><rect x="13" y="10" width="1" height="1" fill="#bf60bf"/><rect x="13" y="14" width="1" height="1" fill="#bf60bf"/><rect x="14" y="1" width="1" height="1" fill="#60bf60"/><rect x="14" y="2" width="1" height="1" fill="#60bf60"/><rect x="14" y="3" width="1" height="1" fill="#60bf60"/><rect x="14" y="4" width="1" height="1" fill="#60bf60"/><rect x="14" y="5" width="1" height="1" fill="#60bf60"/><rect x="14" y="6" width="1" height="1" fill="#60bf60"/><rect x="14" y="7" width="1" height="1" fill="#60bf60"/><rect x="14" y="11" width="1" height="1" fill="#bf60bf"/><rect x="14" y="13" width="1" height="1" fill="#bf60bf"/></svg>